<svg width="1839" height="1008" xmlns="http://www.w3.org/2000/svg" xmlns:xlink="http://www.w3.org/1999/xlink" xml:space="preserve" overflow="hidden"><defs><clipPath id="clip0"><rect x="1229" y="547" width="1839" height="1008"/></clipPath></defs><g clip-path="url(#clip0)" transform="translate(-1229 -547)"><text font-family="Malgun Gothic Semilight,Malgun Gothic Semilight_MSFontService,sans-serif" font-weight="300" font-size="303" transform="matrix(1 0 0 1 1750.65 935)">Stacked</text><text font-family="Malgun Gothic Semilight,Malgun Gothic Semilight_MSFontService,sans-serif" font-weight="300" font-size="303" transform="matrix(1 0 0 1 1921.38 1307)">Circuits</text><path d="M1546 684 1603.5 684C1635.26 684 1661 709.072 1661 740 1661 770.928 1635.26 796 1603.5 796L1546 796Z" fill="#A6A6A6" fill-rule="evenodd"/><rect x="1229" y="684" width="317" height="112" fill="#A6A6A6"/><path d="M1546 795 1603.5 795C1635.26 795 1661 820.072 1661 851 1661 881.928 1635.26 907 1603.5 907L1546 907Z" fill="#CC0000" fill-rule="evenodd"/><rect x="1229" y="795" width="317" height="112" fill="#CC0000"/><path d="M1546 906 1603.5 906C1635.26 906 1661 931.072 1661 962 1661 992.928 1635.26 1018 1603.5 1018L1546 1018Z" fill="#CC0000" fill-rule="evenodd"/><rect x="1229" y="906" width="317" height="112" fill="#CC0000"/><path d="M1733 1017 1790.5 1017C1822.26 1017 1848 1041.85 1848 1072.5 1848 1103.15 1822.26 1128 1790.5 1128L1733 1128Z" fill="#A6A6A6" fill-rule="evenodd"/><rect x="1229" y="1017" width="504" height="111" fill="#A6A6A6"/><path d="M1733 1128 1790.5 1128C1822.26 1128 1848 1152.85 1848 1183.5 1848 1214.15 1822.26 1239 1790.5 1239L1733 1239Z" fill="#CC0000" fill-rule="evenodd"/><rect x="1229" y="1128" width="504" height="111" fill="#CC0000"/><path d="M1733 1239 1790.5 1239C1822.26 1239 1848 1263.85 1848 1294.5 1848 1325.15 1822.26 1350 1790.5 1350L1733 1350Z" fill="#CC0000" fill-rule="evenodd"/><rect x="1229" y="1239" width="504" height="111" fill="#CC0000"/></g></svg>